# xmcd CD database file
#
# Track frame offsets:
#	150
#	12737
#	25602
#	36157
#	47805
#	59135
#	72100
#	85227
#	96742
#	109340
#	121435
#	133075
#	144087
#	155877
#	167852
#	177645
#	189937
#	201215
#	211825
#	221387
#	232710
#	242702
#
# Disc length: 3422 seconds
#
# Revision: 6
# Processed by: cddbd v1.5.2PL0 Copyright (c) Steve Scherf et al.
# Submitted via: CDex 1.95
#
DISCID=470d5c16
DTITLE=Jim Reeves - Jim Reeves Sings Romantic Favourites Cd 1/3
DYEAR=1992
DGENRE=Country
TTITLE0=I Love You Because
TTITLE1=Distant Drums
TTITLE2=He'll Have To Go
TTITLE3=Welcome To My World
TTITLE4=My Happiness
TTITLE5=Have I Told You Lately That I Love You
TTITLE6=You'll Never Know
TTITLE7=Carolina Moon
TTITLE8=I Can't Stop Loving You
TTITLE9=Maria Elena
TTITLE10=You Belong To Me
TTITLE11=Moonlight And Roses (Bring Mem'ries Of You)
TTITLE12=Have You Ever Been Lonely (Have You Ever Been Blue) 
TTITLE13=Mona Lisa
TTITLE14=Charmaine
TTITLE15=Blue Skies
TTITLE16=Moon River
TTITLE17=Memories Are Made Of This
TTITLE18=Ramona
TTITLE19=Mexicali Rose
TTITLE20=A Fool Such As I
TTITLE21=Auf Wiederseh'n Sweetheart
EXTD=YEAR: 1992
EXTT0=Payne
EXTT1=
EXTT2=
EXTT3=
EXTT4=
EXTT5=
EXTT6=
EXTT7=
EXTT8=
EXTT9=
EXTT10=
EXTT11=
EXTT12=
EXTT13=
EXTT14=
EXTT15=
EXTT16=
EXTT17=
EXTT18=
EXTT19=
EXTT20=
EXTT21=
PLAYORDER=
